<?xml version="1.0" encoding="utf-8"?>
<svg xmlns="http://www.w3.org/2000/svg" height="43.609471pt" preserveAspectRatio="xMidYMid meet" version="1.0" viewBox="0 0 56.945642 43.609471" width="56.945642pt">
	<metadata>
Created by potrace 1.15, written by Peter Selinger 2001-2017
</metadata>
	<title>Palm-Mark Image</title>
	<desc>This magical symbol is used in Chapter 15.</desc>
	<g fill="#000000" stroke="none" transform="translate(-2.053545,46.953461) scale(0.100000,-0.100000)">
		<path d="M26 448 c-10 -38 -7 -68 10 -104 27 -57 66 -76 176 -91 54 -7 107 -17 117 -23 16 -8 39 -55 57 -118 8 -27 24 1 24 42 0 31 -7 52 -27 78 -29 38 -59 47 -188 64 -99 12 -145 54 -145 133 0 44 -14 55 -24 19z"/>
		<path d="M210 169 c0 -33 39 -94 73 -115 45 -26 227 -28 253 -2 16 16 54 101 54 121 0 20 -22 2 -40 -33 -32 -63 -57 -74 -152 -67 -92 7 -113 18 -148 76 -28 45 -40 51 -40 20z"/>
	</g>
</svg>
