<?xml version="1.0" encoding="utf-8"?>
<svg xmlns="http://www.w3.org/2000/svg" height="55" version="1.0" viewBox="0 0 72 55" width="72">
	<title>A wavy line is above a bowl-shaped line.</title>
	<path d="m 0.72207565,2.7171838 c -1.26379299,4.7927839 -0.88465509,8.5765602 1.26379295,13.1170932 3.412241,7.189175 8.3410334,9.585567 22.2427564,11.477455 6.824482,0.882881 13.522585,2.14414 14.786379,2.900896 2.022068,1.009007 4.928792,6.936924 7.203619,14.882854 1.011034,3.4054 3.033103,-0.126125 3.033103,-5.297286 0,-3.909903 -0.884655,-6.558546 -3.412241,-9.83782 C 42.174486,25.167592 38.383106,24.032459 22.080177,21.888319 9.5686264,20.374808 3.7551788,15.07752 3.7551788,5.1135758 c 0,-5.54953886 -1.7693102,-6.9369239 -3.03310315,-2.396392 z"/>
	<path d="m 23.975866,37.906307 c 0,4.162154 4.928793,11.855834 9.225689,14.504478 5.687069,3.279272 28.688101,3.531525 31.973963,0.252251 C 67.197587,50.645022 72,39.924321 72,37.401803 c 0,-2.522517 -2.780344,-0.252251 -5.055172,4.162155 -4.044137,7.945931 -7.20362,9.333316 -19.209653,8.450434 C 36.108279,49.131511 33.454314,47.744126 29.031039,40.428825 25.492417,34.75316 23.975866,33.996405 23.975866,37.906307 Z"/>
</svg>
